<svg viewBox="0 0 256 256" xmlns="http://www.w3.org/2000/svg"><path fill="none" d="M0 0h256v256H0z"/><path d="M88 148a68 68 0 1 1 68 68H76a44 44 0 0 1 0-88 42.5 42.5 0 0 1 14.3 2.4M79.7 56.7l-4.2-23.6M48.7 76.5 29 62.7M40.7 112.3l-23.6 4.2M115.5 64.7 129.3 45" fill="none" stroke="#000" stroke-linecap="round" stroke-linejoin="round" stroke-width="12"/><path d="M51.6 135.4a49.1 49.1 0 0 1-10.9-23.1 48 48 0 0 1 91.1-27.9" fill="none" stroke="#000" stroke-linecap="round" stroke-linejoin="round" stroke-width="12"/></svg>